HIERARCHY
ROOT Hips
{
	OFFSET 0.00 0.00 0.00
	CHANNELS 6 Xposition Yposition Zposition Xrotation Yrotation Zrotation
	JOINT RightUpLeg
	{
		OFFSET -3.69398 0.00000 0.00000
		CHANNELS 3 Xrotation Yrotation Zrotation
		JOINT RightLeg
		{
			OFFSET 0.00000 -15.79567 0.00000
			CHANNELS 3 Xrotation Yrotation Zrotation
			JOINT RightFoot
			{
				OFFSET 0.00000 -14.76699 0.00000
				CHANNELS 3 Xrotation Yrotation Zrotation
				JOINT RightToeBase
				{
					OFFSET 0.00000 -1.28446 4.79369
					CHANNELS 3 Xrotation Yrotation Zrotation
					End Site
					{
						OFFSET 0.00000 0.00000 2.95275
					}
				}
			}
		}
	}
	JOINT LeftUpLeg
	{
		OFFSET 3.69398 0.00000 0.00000
		CHANNELS 3 Xrotation Yrotation Zrotation
		JOINT LeftLeg
		{
			OFFSET 0.00000 -15.79567 0.00000
			CHANNELS 3 Xrotation Yrotation Zrotation
			JOINT LeftFoot
			{
				OFFSET 0.00000 -14.76699 0.00000
				CHANNELS 3 Xrotation Yrotation Zrotation
				JOINT LeftToeBase
				{
					OFFSET 0.00000 -1.28446 4.79369
					CHANNELS 3 Xrotation Yrotation Zrotation
					End Site
					{
						OFFSET 0.00000 0.00000 2.95275
					}
				}
			}
		}
	}
	JOINT Spine
	{
		OFFSET 0.00000 2.39296 0.00000
		CHANNELS 3 Xrotation Yrotation Zrotation
		JOINT RightShoulder
		{
			OFFSET 0.00000 13.20741 0.00000
			CHANNELS 3 Xrotation Yrotation Zrotation
			JOINT RightArm
			{
				OFFSET -8.14047 0.00000 0.00000
				CHANNELS 3 Xrotation Yrotation Zrotation
				JOINT RightForeArm
				{
					OFFSET -10.64984 0.00000 0.00000
					CHANNELS 3 Yrotation Zrotation Xrotation
					JOINT RightHand
					{
						OFFSET -8.30462 0.00000 0.00000
						CHANNELS 3 Xrotation Yrotation Zrotation
						End Site
						{
							OFFSET -3.93700 0.00000 0.00000
						}
						JOINT RightHandThumb1
						{
							OFFSET 0.00000 0.00000 0.00000
							CHANNELS 3 Xrotation Zrotation Yrotation
							End Site
							{
								OFFSET 0.00000 0.00000 3.93700
							}
						}
					}
				}
			}
		}
		JOINT LeftShoulder
		{
			OFFSET 0.00000 13.20741 0.00000
			CHANNELS 3 Xrotation Yrotation Zrotation
			JOINT LeftArm
			{
				OFFSET 8.14047 0.00000 0.00000
				CHANNELS 3 Xrotation Yrotation Zrotation
				JOINT LeftForeArm
				{
					OFFSET 10.64984 0.00000 0.00000
					CHANNELS 3 Yrotation Zrotation Xrotation
					JOINT LeftHand
					{
						OFFSET 8.30462 0.00000 0.00000
						CHANNELS 3 Xrotation Yrotation Zrotation
						End Site
						{
							OFFSET 3.93700 0.00000 0.00000
						}
						JOINT LeftHandThumb1
						{
							OFFSET 0.00000 0.00000 0.00000
							CHANNELS 3 Xrotation Zrotation Yrotation
							End Site
							{
								OFFSET 0.00000 0.00000 3.93700
							}
						}
					}
				}
			}
		}
		JOINT Head
		{
			OFFSET 0.00000 19.25010 0.00000
			CHANNELS 3 Xrotation Yrotation Zrotation
			End Site
			{
				OFFSET 0.00000 4.52755 0.00000
			}
		}
	}
}
MOTION
Frames: 19
Frame Time: 0.008333
 -3.0559 32.5939 -4.2875 38.3873 4.1322 -1.9952 -29.6775 -14.0300 2.0169 -4.2378 0.0000 0.0000 -8.9590 -4.9644 19.7320 20.9572 0.0000 0.0000 -33.2431 2.4673 -1.2205 0.8476 -0.0000 0.0000 -10.0809 -3.9147 -9.7303 9.9848 -0.0000 0.0000 -40.9570 -2.8261 -0.5317 -26.1009 -0.3404 -45.6319 11.6056 14.1168 34.9538 -7.5228 0.0000 -3.6240 -0.5412 2.9408 10.4329 32.8623 0.0000 -24.3270 -6.9681 11.6597 42.4498 -24.9374 -10.8055 -32.3810 4.5198 0.0000 17.5207 1.3041 22.3382 -3.4278 33.1476 -0.0000 26.2537 6.0484 1.6488 5.6124
 -3.0564 32.5940 -4.2849 38.3900 4.1431 -1.9885 -29.6726 -14.0278 2.0066 -4.2485 -0.0000 0.0000 -8.9293 -4.9936 19.8055 20.9167 0.0000 0.0000 -33.2349 2.4526 -1.2282 0.8272 -0.0000 0.0000 -10.0560 -3.9184 -9.7617 9.9899 0.0000 0.0000 -40.9622 -2.8326 -0.5449 -26.0840 -0.3383 -45.6358 11.5426 14.0738 34.9820 -7.5084 0.0000 -3.5920 -0.5434 2.9406 10.4742 32.8623 0.0000 -24.3270 -6.9406 11.6775 42.4322 -24.9388 -10.8478 -32.3774 4.5344 0.0000 17.4666 1.3038 22.4107 -3.4164 33.1476 -0.0000 26.2537 6.0631 1.6591 5.5996
 -3.0567 32.5942 -4.2828 38.3964 4.1477 -1.9885 -29.6718 -14.0332 2.0066 -4.2580 -0.0000 -0.0000 -8.9492 -4.9695 19.7537 20.9433 -0.0000 -0.0000 -33.2438 2.4574 -1.2283 0.8398 -0.0000 -0.0000 -10.0657 -3.9353 -9.7715 10.0249 -0.0000 -0.0000 -40.9684 -2.8362 -0.5481 -26.0878 -0.3368 -45.6362 11.5071 14.0592 34.9989 -7.5001 0.0000 -3.5837 -0.5434 2.9407 10.4742 32.8623 0.0000 -24.3270 -6.9575 11.6585 42.4268 -24.9247 -10.8552 -32.3832 4.5324 0.0000 17.4667 1.3144 22.3905 -3.4471 33.1476 -0.0000 26.2537 6.0780 1.6542 5.5829
 -3.0579 32.5940 -4.2807 38.3979 4.1501 -1.9966 -29.6627 -14.0343 2.0164 -4.2645 0.0000 0.0000 -8.9571 -4.9743 19.7001 20.9738 -0.0000 0.0000 -33.2413 2.4544 -1.2241 0.8450 0.0000 -0.0000 -10.0790 -3.9286 -9.7517 10.0042 -0.0000 -0.0000 -40.9720 -2.8354 -0.5447 -26.0747 -0.3573 -45.6393 11.4476 14.0463 35.0131 -7.4979 0.0000 -3.5604 -0.5404 2.9232 10.4791 32.8623 0.0000 -24.3270 -6.9356 11.6536 42.4111 -24.9675 -10.8490 -32.3800 4.5474 0.0000 17.5000 1.3287 22.3527 -3.4900 33.1476 -0.0000 26.2537 6.0937 1.6460 5.5743
 -3.0588 32.5938 -4.2786 38.4034 4.1541 -1.9990 -29.6658 -14.0469 2.0159 -4.2594 0.0000 0.0000 -8.9545 -4.9586 19.7380 20.9594 0.0000 0.0000 -33.2486 2.4822 -1.2227 0.8568 0.0000 -0.0000 -10.0853 -3.9553 -9.7530 10.0105 -0.0000 -0.0000 -40.9787 -2.8415 -0.5489 -26.0889 -0.3341 -45.6332 11.4716 14.0601 35.0213 -7.5092 0.0000 -3.5706 -0.5416 2.9329 10.4680 32.8623 0.0000 -24.3270 -6.9456 11.6399 42.4093 -24.9510 -10.8517 -32.3862 4.5183 0.0000 17.4698 1.3441 22.3932 -3.5245 33.1476 -0.0000 26.2537 6.1029 1.6524 5.5722
 -3.0600 32.5939 -4.2767 38.4121 4.1616 -1.9950 -29.6740 -14.0556 2.0117 -4.2544 -0.0000 -0.0000 -8.9616 -4.9654 19.7318 20.9606 0.0000 -0.0000 -33.2492 2.4495 -1.2250 0.8392 -0.0000 0.0000 -10.0658 -3.9280 -9.8004 10.0084 0.0000 0.0000 -40.9906 -2.8470 -0.5623 -26.0692 -0.3517 -45.6248 11.4399 14.0739 35.0244 -7.5128 0.0000 -3.5829 -0.5416 2.9326 10.4681 32.8623 0.0000 -24.3270 -6.9365 11.6301 42.4001 -24.9842 -10.8309 -32.3850 4.5170 0.0000 17.4806 1.3404 22.4266 -3.5097 33.1476 -0.0000 26.2537 6.1188 1.6653 5.5773
 -3.0612 32.5933 -4.2739 38.4132 4.1606 -1.9976 -29.6695 -14.0345 2.0156 -4.2539 0.0000 -0.0000 -8.9749 -4.9813 19.7331 20.9801 0.0000 -0.0000 -33.2458 2.4713 -1.2255 0.8469 0.0000 -0.0000 -10.0878 -3.9370 -9.7483 10.0207 0.0000 0.0000 -40.9929 -2.8460 -0.5632 -26.0838 -0.3449 -45.6303 11.4561 14.1036 35.0361 -7.5255 0.0000 -3.6005 -0.5452 2.9519 10.4683 32.8623 0.0000 -24.3270 -6.9335 11.6305 42.4040 -25.0154 -10.8271 -32.4058 4.5072 0.0000 17.4842 1.3496 22.3978 -3.5380 33.1476 -0.0000 26.2537 6.1278 1.6625 5.5731
 -3.0622 32.5930 -4.2724 38.4140 4.1609 -1.9973 -29.6732 -14.0481 2.0169 -4.2407 -0.0000 -0.0000 -8.9478 -4.9878 19.7932 20.9032 0.0000 0.0000 -33.2429 2.4711 -1.2244 0.8439 0.0000 -0.0000 -10.0863 -3.9334 -9.7441 9.9934 0.0000 -0.0000 -40.9927 -2.8469 -0.5668 -26.0707 -0.3568 -45.6311 11.4268 14.1178 35.0477 -7.5399 0.0000 -3.6049 -0.5454 2.9529 10.4700 32.8623 0.0000 -24.3270 -6.9442 11.6239 42.4019 -25.0140 -10.8405 -32.4130 4.5111 0.0000 17.4497 1.3442 22.3847 -3.5260 33.1476 -0.0000 26.2537 6.1290 1.6687 5.5728
 -3.0638 32.5927 -4.2699 38.4139 4.1581 -1.9978 -29.6657 -14.0390 2.0222 -4.2448 -0.0000 -0.0000 -8.9900 -4.9819 19.7065 20.9932 -0.0000 0.0000 -33.2360 2.4604 -1.2184 0.8378 0.0000 -0.0000 -10.0879 -3.9258 -9.7567 10.0042 -0.0000 -0.0000 -40.9954 -2.8503 -0.5692 -26.0612 -0.3600 -45.6354 11.4517 14.1609 35.0587 -7.5407 0.0000 -3.6327 -0.5443 2.9495 10.4615 32.8623 0.0000 -24.3270 -6.9463 11.6171 42.4020 -25.0131 -10.8421 -32.4190 4.5117 0.0000 17.4704 1.3244 22.3086 -3.4853 33.1476 -0.0000 26.2537 6.1406 1.6677 5.5706
 -3.0650 32.5924 -4.2674 38.4142 4.1606 -2.0020 -29.6568 -14.0324 2.0273 -4.2512 -0.0000 0.0000 -8.9924 -4.9845 19.7012 20.9649 0.0000 -0.0000 -33.2397 2.4753 -1.2139 0.8533 0.0000 -0.0000 -10.1038 -3.9374 -9.7503 9.9877 0.0000 -0.0000 -40.9975 -2.8507 -0.5716 -26.0549 -0.3678 -45.6365 11.4485 14.1791 35.0637 -7.5565 0.0000 -3.6321 -0.5522 3.0043 10.4203 32.8623 0.0000 -24.3270 -6.9333 11.6256 42.4014 -25.0356 -10.8551 -32.4331 4.5049 0.0000 17.4790 1.3437 22.3740 -3.5262 33.1476 -0.0000 26.2537 6.1428 1.6646 5.5726
 -3.0666 32.5923 -4.2650 38.4145 4.1604 -1.9965 -29.6598 -14.0363 2.0256 -4.2385 0.0000 0.0000 -8.9983 -4.9725 19.6720 20.9636 -0.0000 0.0000 -33.2309 2.4589 -1.2118 0.8355 -0.0000 0.0000 -10.0868 -3.9295 -9.7837 9.9695 0.0000 0.0000 -40.9988 -2.8582 -0.5813 -26.0448 -0.3654 -45.6364 11.4416 14.1891 35.0770 -7.5489 0.0000 -3.6444 -0.5532 3.0090 10.4219 32.8623 0.0000 -24.3270 -6.9378 11.6180 42.3981 -25.0156 -10.8557 -32.4249 4.4979 0.0000 17.5299 1.3565 22.2991 -3.5711 33.1476 -0.0000 26.2537 6.1472 1.6689 5.5686
 -3.0682 32.5922 -4.2628 38.4109 4.1569 -2.0080 -29.6580 -14.0642 2.0412 -4.2179 -0.0000 -0.0000 -9.0197 -4.9706 19.7077 21.0363 0.0000 -0.0000 -33.2328 2.4871 -1.2004 0.8601 -0.0000 0.0000 -10.1139 -3.9442 -9.7518 9.9214 -0.0000 0.0000 -40.9968 -2.8638 -0.5751 -26.0361 -0.3692 -45.6320 11.4432 14.1991 35.0787 -7.5454 0.0000 -3.6563 -0.5573 3.0293 10.4290 32.8623 0.0000 -24.3270 -6.9247 11.6227 42.3965 -25.0174 -10.8697 -32.4295 4.5020 0.0000 17.5896 1.3503 22.3101 -3.5530 33.1476 -0.0000 26.2537 6.1503 1.6592 5.5720
 -3.0696 32.5915 -4.2608 38.4095 4.1589 -1.9960 -29.6478 -14.0185 2.0325 -4.2366 0.0000 -0.0000 -9.0162 -5.0062 19.7105 20.9806 0.0000 0.0000 -33.2310 2.4983 -1.2089 0.8688 0.0000 -0.0000 -10.1236 -3.9504 -9.7527 9.9860 -0.0000 -0.0000 -40.9951 -2.8714 -0.5894 -26.0254 -0.3679 -45.6336 11.4446 14.2102 35.0862 -7.5240 0.0000 -3.6855 -0.5612 3.0426 10.4553 32.8623 0.0000 -24.3270 -6.9215 11.6260 42.3920 -24.9100 -10.9209 -32.4066 4.4731 0.0000 17.5308 1.3612 22.3108 -3.5817 33.1476 -0.0000 26.2537 6.1475 1.6658 5.5650
 -3.0716 32.5914 -4.2579 38.4085 4.1509 -1.9989 -29.6473 -14.0493 2.0442 -4.2204 0.0000 0.0000 -9.0172 -4.9696 19.6861 20.9882 -0.0000 0.0000 -33.2237 2.5050 -1.1983 0.8665 -0.0000 -0.0000 -10.1289 -3.9471 -9.7707 9.9906 -0.0000 0.0000 -40.9969 -2.8745 -0.5876 -26.0089 -0.3740 -45.6404 11.3911 14.1730 35.1078 -7.4860 0.0000 -3.6586 -0.5598 3.0273 10.4812 32.8623 0.0000 -24.3270 -6.9115 11.6331 42.3864 -24.9628 -10.9095 -32.4099 4.4937 0.0000 17.6196 1.3508 22.3026 -3.5555 33.1476 -0.0000 26.2537 6.1510 1.6610 5.5598
 -3.0735 32.5911 -4.2557 38.4086 4.1479 -1.9988 -29.6433 -14.0397 2.0494 -4.2199 0.0000 0.0000 -9.0186 -4.9771 19.6859 20.9748 0.0000 -0.0000 -33.2236 2.5154 -1.1933 0.8745 -0.0000 0.0000 -10.1351 -3.9490 -9.7731 9.9753 0.0000 0.0000 -40.9979 -2.8751 -0.5920 -26.0119 -0.3722 -45.6405 11.4179 14.2139 35.1107 -7.5112 0.0000 -3.7488 -0.5571 3.0155 10.4719 32.8623 0.0000 -24.3270 -6.9033 11.6345 42.3904 -24.9548 -10.9181 -32.4162 4.4921 0.0000 17.6288 1.3413 22.2984 -3.5313 33.1476 -0.0000 26.2537 6.1535 1.6477 5.5528
 -3.0756 32.5907 -4.2532 38.4077 4.1495 -1.9980 -29.6404 -14.0397 2.0516 -4.2140 0.0000 -0.0000 -9.0256 -4.9983 19.7375 21.0038 -0.0000 -0.0000 -33.2167 2.5103 -1.1911 0.8706 -0.0000 0.0000 -10.1449 -3.9419 -9.7526 9.9866 -0.0000 0.0000 -40.9993 -2.8832 -0.6001 -26.0060 -0.3811 -45.6403 11.3994 14.2268 35.1140 -7.5198 0.0000 -3.7653 -0.5589 3.0198 10.4904 32.8623 0.0000 -24.3270 -6.8769 11.6541 42.3861 -24.9748 -10.9245 -32.4115 4.4979 0.0000 17.6166 1.3365 22.3396 -3.5125 33.1476 -0.0000 26.2537 6.1576 1.6372 5.5470
 -3.0778 32.5904 -4.2507 38.4057 4.1407 -1.9942 -29.6341 -14.0238 2.0567 -4.2144 0.0000 -0.0000 -9.0193 -4.9949 19.7545 20.9413 0.0000 0.0000 -33.2117 2.5312 -1.1846 0.8742 -0.0000 -0.0000 -10.1518 -3.9508 -9.7669 9.9818 0.0000 -0.0000 -41.0002 -2.8865 -0.6037 -26.0052 -0.3767 -45.6417 11.3667 14.2232 35.1276 -7.5307 0.0000 -3.7852 -0.5556 2.9788 10.5701 32.8623 0.0000 -24.3270 -6.8785 11.6563 42.3810 -24.9690 -10.9273 -32.4006 4.4901 0.0000 17.6180 1.3546 22.3614 -3.5566 33.1476 -0.0000 26.2537 6.1621 1.6337 5.5400
 -3.0798 32.5902 -4.2482 38.4022 4.1364 -1.9903 -29.6243 -14.0191 2.0600 -4.2185 -0.0000 -0.0000 -9.0226 -4.9934 19.7244 20.9712 -0.0000 -0.0000 -33.2067 2.5489 -1.1804 0.8817 0.0000 -0.0000 -10.1566 -3.9672 -9.7764 9.9677 -0.0000 0.0000 -40.9993 -2.8860 -0.6102 -26.0068 -0.3777 -45.6390 11.3660 14.2363 35.1242 -7.5463 0.0000 -3.7890 -0.5613 3.0073 10.5780 32.8623 0.0000 -24.3270 -6.8663 11.6680 42.3795 -25.0006 -10.9190 -32.4000 4.4932 0.0000 17.5932 1.3615 22.3434 -3.5774 33.1476 -0.0000 26.2537 6.1674 1.6141 5.5310
 -3.0812 32.5899 -4.2465 38.4023 4.1314 -1.9843 -29.6216 -14.0083 2.0585 -4.2214 0.0000 -0.0000 -8.9953 -5.0141 19.7747 20.9019 0.0000 0.0000 -33.2029 2.5644 -1.1816 0.8817 -0.0000 0.0000 -10.1651 -3.9686 -9.7684 9.9805 0.0000 0.0000 -41.0008 -2.8927 -0.6180 -25.9998 -0.3746 -45.6470 11.3284 14.2248 35.1442 -7.5415 0.0000 -3.7516 -0.5546 2.9748 10.5646 32.8623 0.0000 -24.3270 -6.8785 11.6644 42.3844 -25.0060 -10.8987 -32.4010 4.4848 0.0000 17.5648 1.3294 22.3305 -3.4953 33.1476 -0.0000 26.2537 6.1761 1.6177 5.5274
